<svg xmlns="http://www.w3.org/2000/svg" version="1.1" xmlns:xlink="http://www.w3.org/1999/xlink" xmlns:svgjs="http://svgjs.dev/svgjs" width="1444" height="642" preserveAspectRatio="none" viewBox="0 0 1444 642"><g mask="url(&quot;#SvgjsMask1304&quot;)" fill="none"><rect width="1444" height="642" x="0" y="0" fill="url(&quot;#SvgjsLinearGradient1305&quot;)"></rect><path d="M232 620L405 447" stroke-width="8" stroke="url(&quot;#SvgjsLinearGradient1306&quot;)" stroke-linecap="round" class="TopRight"></path><path d="M464 463L815 112" stroke-width="10" stroke="url(&quot;#SvgjsLinearGradient1307&quot;)" stroke-linecap="round" class="BottomLeft"></path><path d="M397 297L-21 715" stroke-width="8" stroke="url(&quot;#SvgjsLinearGradient1306&quot;)" stroke-linecap="round" class="TopRight"></path><path d="M544 26L288 282" stroke-width="6" stroke="url(&quot;#SvgjsLinearGradient1306&quot;)" stroke-linecap="round" class="TopRight"></path><path d="M435 50L676 -191" stroke-width="6" stroke="url(&quot;#SvgjsLinearGradient1307&quot;)" stroke-linecap="round" class="BottomLeft"></path><path d="M1309 256L1073 492" stroke-width="6" stroke="url(&quot;#SvgjsLinearGradient1306&quot;)" stroke-linecap="round" class="TopRight"></path><path d="M1156 264L1328 92" stroke-width="10" stroke="url(&quot;#SvgjsLinearGradient1306&quot;)" stroke-linecap="round" class="TopRight"></path><path d="M537 279L789 27" stroke-width="6" stroke="url(&quot;#SvgjsLinearGradient1306&quot;)" stroke-linecap="round" class="TopRight"></path><path d="M825 29L543 311" stroke-width="10" stroke="url(&quot;#SvgjsLinearGradient1306&quot;)" stroke-linecap="round" class="TopRight"></path><path d="M1280 542L922 900" stroke-width="6" stroke="url(&quot;#SvgjsLinearGradient1306&quot;)" stroke-linecap="round" class="TopRight"></path><path d="M148 247L-109 504" stroke-width="6" stroke="url(&quot;#SvgjsLinearGradient1306&quot;)" stroke-linecap="round" class="TopRight"></path><path d="M95 366L516 -55" stroke-width="6" stroke="url(&quot;#SvgjsLinearGradient1306&quot;)" stroke-linecap="round" class="TopRight"></path><path d="M349 412L552 209" stroke-width="6" stroke="url(&quot;#SvgjsLinearGradient1306&quot;)" stroke-linecap="round" class="TopRight"></path><path d="M875 430L1328 -23" stroke-width="10" stroke="url(&quot;#SvgjsLinearGradient1306&quot;)" stroke-linecap="round" class="TopRight"></path><path d="M733 174L926 -19" stroke-width="10" stroke="url(&quot;#SvgjsLinearGradient1306&quot;)" stroke-linecap="round" class="TopRight"></path><path d="M594 623L130 1087" stroke-width="8" stroke="url(&quot;#SvgjsLinearGradient1307&quot;)" stroke-linecap="round" class="BottomLeft"></path><path d="M305 404L534 175" stroke-width="6" stroke="url(&quot;#SvgjsLinearGradient1307&quot;)" stroke-linecap="round" class="BottomLeft"></path><path d="M754 611L1003 362" stroke-width="10" stroke="url(&quot;#SvgjsLinearGradient1306&quot;)" stroke-linecap="round" class="TopRight"></path><path d="M820 360L1257 -77" stroke-width="10" stroke="url(&quot;#SvgjsLinearGradient1306&quot;)" stroke-linecap="round" class="TopRight"></path><path d="M1305 93L1752 -354" stroke-width="10" stroke="url(&quot;#SvgjsLinearGradient1307&quot;)" stroke-linecap="round" class="BottomLeft"></path><path d="M1013 152L536 629" stroke-width="10" stroke="url(&quot;#SvgjsLinearGradient1306&quot;)" stroke-linecap="round" class="TopRight"></path><path d="M190 594L580 204" stroke-width="6" stroke="url(&quot;#SvgjsLinearGradient1307&quot;)" stroke-linecap="round" class="BottomLeft"></path><path d="M522 414L122 814" stroke-width="8" stroke="url(&quot;#SvgjsLinearGradient1306&quot;)" stroke-linecap="round" class="TopRight"></path><path d="M1059 307L696 670" stroke-width="6" stroke="url(&quot;#SvgjsLinearGradient1307&quot;)" stroke-linecap="round" class="BottomLeft"></path><path d="M361 146L650 -143" stroke-width="8" stroke="url(&quot;#SvgjsLinearGradient1306&quot;)" stroke-linecap="round" class="TopRight"></path><path d="M566 300L191 675" stroke-width="8" stroke="url(&quot;#SvgjsLinearGradient1307&quot;)" stroke-linecap="round" class="BottomLeft"></path><path d="M700 566L388 878" stroke-width="6" stroke="url(&quot;#SvgjsLinearGradient1306&quot;)" stroke-linecap="round" class="TopRight"></path><path d="M477 549L943 83" stroke-width="10" stroke="url(&quot;#SvgjsLinearGradient1306&quot;)" stroke-linecap="round" class="TopRight"></path><path d="M34 424L442 16" stroke-width="8" stroke="url(&quot;#SvgjsLinearGradient1307&quot;)" stroke-linecap="round" class="BottomLeft"></path><path d="M1416 421L1763 74" stroke-width="10" stroke="url(&quot;#SvgjsLinearGradient1306&quot;)" stroke-linecap="round" class="TopRight"></path><path d="M843 591L618 816" stroke-width="8" stroke="url(&quot;#SvgjsLinearGradient1306&quot;)" stroke-linecap="round" class="TopRight"></path><path d="M187 93L548 -268" stroke-width="6" stroke="url(&quot;#SvgjsLinearGradient1306&quot;)" stroke-linecap="round" class="TopRight"></path><path d="M311 41L596 -244" stroke-width="6" stroke="url(&quot;#SvgjsLinearGradient1306&quot;)" stroke-linecap="round" class="TopRight"></path><path d="M763 298L504 557" stroke-width="8" stroke="url(&quot;#SvgjsLinearGradient1307&quot;)" stroke-linecap="round" class="BottomLeft"></path><path d="M1068 294L623 739" stroke-width="8" stroke="url(&quot;#SvgjsLinearGradient1307&quot;)" stroke-linecap="round" class="BottomLeft"></path><path d="M306 200L48 458" stroke-width="6" stroke="url(&quot;#SvgjsLinearGradient1306&quot;)" stroke-linecap="round" class="TopRight"></path><path d="M735 269L256 748" stroke-width="8" stroke="url(&quot;#SvgjsLinearGradient1307&quot;)" stroke-linecap="round" class="BottomLeft"></path><path d="M450 58L123 385" stroke-width="10" stroke="url(&quot;#SvgjsLinearGradient1307&quot;)" stroke-linecap="round" class="BottomLeft"></path><path d="M706 380L490 596" stroke-width="8" stroke="url(&quot;#SvgjsLinearGradient1307&quot;)" stroke-linecap="round" class="BottomLeft"></path><path d="M294 270L480 84" stroke-width="10" stroke="url(&quot;#SvgjsLinearGradient1306&quot;)" stroke-linecap="round" class="TopRight"></path></g><defs><mask id="SvgjsMask1304"><rect width="1444" height="642" fill="#ffffff"></rect></mask><linearGradient x1="86.11%" y1="-31.23%" x2="13.89%" y2="131.23%" gradientUnits="userSpaceOnUse" id="SvgjsLinearGradient1305"><stop stop-color="#0e2a47" offset="0"></stop><stop stop-color="rgba(164, 1, 143, 0)" offset="0"></stop><stop stop-color="rgba(164, 1, 143, 0)" offset="1"></stop></linearGradient><linearGradient x1="0%" y1="100%" x2="100%" y2="0%" id="SvgjsLinearGradient1306"><stop stop-color="rgba(121, 6, 141, 0)" offset="0"></stop><stop stop-color="rgba(121, 6, 141, 1)" offset="1"></stop></linearGradient><linearGradient x1="100%" y1="0%" x2="0%" y2="100%" id="SvgjsLinearGradient1307"><stop stop-color="rgba(121, 6, 141, 0)" offset="0"></stop><stop stop-color="rgba(121, 6, 141, 1)" offset="1"></stop></linearGradient></defs></svg>