<?xml version="1.0" standalone="no"?><svg xmlns:xlink="http://www.w3.org/1999/xlink" xmlns="http://www.w3.org/2000/svg" viewBox="0 0 1000 615.3846153846154" preserveAspectRatio="xMaxYMax slice"><g transform="scale(1.4075585896262932)"><rect x="0" y="0" width="710.45" height="437.20000000000005" fill="#ffffff"/><rect x="0" y="0" width="54.65" height="54.65" fill="#ffffff"/><rect x="0" y="0" width="54.65" height="54.65" fill="#ffffff"/><rect x="54.65" y="0" width="54.65" height="54.65" fill="#f2e6fb"/><g transform="translate(54.65,0) scale(2.7325) rotate(0)"><path fill-rule="evenodd" clip-rule="evenodd" d="M10 20C15.5228 20 20 15.5228 20 10C20 4.47715 15.5228 0 10 0C4.47715 0 0 4.47715 0 10C0 15.5228 4.47715 20 10 20ZM10 17C13.866 17 17 13.866 17 10C17 6.13401 13.866 3 10 3C6.13401 3 3 6.13401 3 10C3 13.866 6.13401 17 10 17Z" fill="#ffffff"/></g><rect x="109.3" y="0" width="54.65" height="54.65" fill="#ffffff"/><g transform="translate(109.3,0) scale(2.7325) rotate(0)"><rect width="20" height="10" fill="#ffffff"/></g><rect x="163.95" y="0" width="54.65" height="54.65" fill="#ffffff"/><g transform="translate(163.95,0) scale(2.7325) rotate(0)"><path fill-rule="evenodd" clip-rule="evenodd" d="M10 20C15.5228 20 20 15.5228 20 10C20 4.47715 15.5228 0 10 0C4.47715 0 0 4.47715 0 10C0 15.5228 4.47715 20 10 20ZM10 17C13.866 17 17 13.866 17 10C17 6.13401 13.866 3 10 3C6.13401 3 3 6.13401 3 10C3 13.866 6.13401 17 10 17Z" fill="#f9f3fd"/></g><rect x="218.6" y="0" width="54.65" height="54.65" fill="#ffffff"/><g transform="translate(218.6,0) scale(2.7325) rotate(0)"><rect width="20" height="10" fill="#ffffff"/></g><rect x="273.25" y="0" width="54.65" height="54.65" fill="#fbf8fe"/><g transform="translate(273.25,0) scale(2.7325) rotate(0)"><rect width="20" height="10" fill="#ffffff"/></g><rect x="327.9" y="0" width="54.65" height="54.65" fill="#edddf9"/><rect x="327.9" y="0" width="54.65" height="54.65" fill="#ffffff"/><rect x="382.55" y="0" width="54.65" height="54.65" fill="#f1e5fb"/><rect x="382.55" y="0" width="54.65" height="54.65" fill="#ffffff"/><rect x="437.2" y="0" width="54.65" height="54.65" fill="#f5edfc"/><rect x="437.2" y="0" width="54.65" height="54.65" fill="#ffffff"/><rect x="491.85" y="0" width="54.65" height="54.65" fill="#e6d1f7"/><g transform="translate(491.85,0) scale(2.7325) rotate(0)"><path fill-rule="evenodd" clip-rule="evenodd" d="M10 20C15.5228 20 20 15.5228 20 10C20 4.47715 15.5228 0 10 0C4.47715 0 0 4.47715 0 10C0 15.5228 4.47715 20 10 20ZM10 17C13.866 17 17 13.866 17 10C17 6.13401 13.866 3 10 3C6.13401 3 3 6.13401 3 10C3 13.866 6.13401 17 10 17Z" fill="#ffffff"/></g><rect x="546.5" y="0" width="54.65" height="54.65" fill="#ead8f8"/><g transform="translate(546.5,0) scale(2.7325) rotate(0)"><rect width="20" height="10" fill="#ebdaf9"/></g><rect x="601.15" y="0" width="54.65" height="54.65" fill="#fefdff"/><rect x="601.15" y="0" width="54.65" height="54.65" fill="#eee0fa"/><rect x="655.8" y="0" width="54.65" height="54.65" fill="#f2e7fb"/><rect x="655.8" y="0" width="54.65" height="54.65" fill="#ffffff"/><rect x="0" y="54.65" width="54.65" height="54.65" fill="#f5ecfc"/><rect x="0" y="54.65" width="54.65" height="54.65" fill="#ffffff"/><rect x="54.65" y="54.65" width="54.65" height="54.65" fill="#ebd9f9"/><path d="M 54.65 109.3 A 54.65 54.65 0 0 0 109.3 54.65 L 54.65 54.65" fill="#edddf9"/><rect x="109.3" y="54.65" width="54.65" height="54.65" fill="#fbf8fe"/><g transform="translate(109.3,54.65) scale(2.7325) rotate(0)"><rect width="20" height="10" fill="#eddef9"/></g><rect x="163.95" y="54.65" width="54.65" height="54.65" fill="#f1e5fb"/><g transform="translate(163.95,54.65) scale(2.7325) rotate(0)"><rect width="20" height="10" fill="#f5ecfc"/></g><rect x="218.6" y="54.65" width="54.65" height="54.65" fill="#ffffff"/><g transform="translate(218.6,54.65) scale(2.7325) rotate(0)"><rect width="20" height="10" fill="#ebd9f9"/></g><rect x="273.25" y="54.65" width="54.65" height="54.65" fill="#ffffff"/><path d="M 273.25 109.3 A 54.65 54.65 0 0 0 327.9 54.65 L 273.25 54.65" fill="#ebdaf9"/><rect x="327.9" y="54.65" width="54.65" height="54.65" fill="#f7f0fc"/><g transform="translate(327.9,54.65) scale(2.7325) rotate(0)"><path fill-rule="evenodd" clip-rule="evenodd" d="M10 20C15.5228 20 20 15.5228 20 10C20 4.47715 15.5228 0 10 0C4.47715 0 0 4.47715 0 10C0 15.5228 4.47715 20 10 20ZM10 17C13.866 17 17 13.866 17 10C17 6.13401 13.866 3 10 3C6.13401 3 3 6.13401 3 10C3 13.866 6.13401 17 10 17Z" fill="#eee0fa"/></g><rect x="382.55" y="54.65" width="54.65" height="54.65" fill="#e6d1f7"/><g transform="translate(382.55,54.65) scale(2.7325) rotate(0)"><rect width="20" height="10" fill="#f1e4fb"/></g><rect x="437.2" y="54.65" width="54.65" height="54.65" fill="#ffffff"/><rect x="437.2" y="54.65" width="54.65" height="54.65" fill="#ffffff"/><rect x="491.85" y="54.65" width="54.65" height="54.65" fill="#ffffff"/><g transform="translate(491.85,54.65) scale(2.7325) rotate(0)"><rect width="20" height="10" fill="#ffffff"/></g><rect x="546.5" y="54.65" width="54.65" height="54.65" fill="#f8f1fd"/><g transform="translate(546.5,54.65) scale(2.7325) rotate(0)"><path fill-rule="evenodd" clip-rule="evenodd" d="M10 20C15.5228 20 20 15.5228 20 10C20 4.47715 15.5228 0 10 0C4.47715 0 0 4.47715 0 10C0 15.5228 4.47715 20 10 20ZM10 17C13.866 17 17 13.866 17 10C17 6.13401 13.866 3 10 3C6.13401 3 3 6.13401 3 10C3 13.866 6.13401 17 10 17Z" fill="#ffffff"/></g><rect x="601.15" y="54.65" width="54.65" height="54.65" fill="#f0e4fa"/><rect x="601.15" y="54.65" width="54.65" height="54.65" fill="#ffffff"/><rect x="655.8" y="54.65" width="54.65" height="54.65" fill="#fefeff"/><path d="M 655.8 54.65 A 54.65 54.65 0 0 1  710.4499999999999 109.3 L 655.8 54.65 A 54.65 54.65 0 0 0 710.4499999999999 109.3" fill="#fbf7fe"/><rect x="0" y="109.3" width="54.65" height="54.65" fill="#ffffff"/><g transform="translate(0,109.3) scale(2.7325) rotate(0)"><rect width="20" height="10" fill="#fdfcff"/></g><rect x="54.65" y="109.3" width="54.65" height="54.65" fill="#ffffff"/><g transform="translate(54.65,109.3) scale(2.7325) rotate(0)"><path fill-rule="evenodd" clip-rule="evenodd" d="M10 20C15.5228 20 20 15.5228 20 10C20 4.47715 15.5228 0 10 0C4.47715 0 0 4.47715 0 10C0 15.5228 4.47715 20 10 20ZM10 17C13.866 17 17 13.866 17 10C17 6.13401 13.866 3 10 3C6.13401 3 3 6.13401 3 10C3 13.866 6.13401 17 10 17Z" fill="#ffffff"/></g><rect x="109.3" y="109.3" width="54.65" height="54.65" fill="#ffffff"/><path d="M 109.3 163.95 A 54.65 54.65 0 0 0 163.95 109.3 L 109.3 109.3" fill="#f5edfc"/><rect x="163.95" y="109.3" width="54.65" height="54.65" fill="#ffffff"/><g transform="translate(163.95,109.3) scale(2.7325) rotate(0)"><path fill-rule="evenodd" clip-rule="evenodd" d="M10 20C15.5228 20 20 15.5228 20 10C20 4.47715 15.5228 0 10 0C4.47715 0 0 4.47715 0 10C0 15.5228 4.47715 20 10 20ZM10 17C13.866 17 17 13.866 17 10C17 6.13401 13.866 3 10 3C6.13401 3 3 6.13401 3 10C3 13.866 6.13401 17 10 17Z" fill="#ffffff"/></g><rect x="218.6" y="109.3" width="54.65" height="54.65" fill="#fefdff"/><g transform="translate(218.6,109.3) scale(2.7325) rotate(0)"><path fill-rule="evenodd" clip-rule="evenodd" d="M10 20C15.5228 20 20 15.5228 20 10C20 4.47715 15.5228 0 10 0C4.47715 0 0 4.47715 0 10C0 15.5228 4.47715 20 10 20ZM10 17C13.866 17 17 13.866 17 10C17 6.13401 13.866 3 10 3C6.13401 3 3 6.13401 3 10C3 13.866 6.13401 17 10 17Z" fill="#ffffff"/></g><rect x="273.25" y="109.3" width="54.65" height="54.65" fill="#f1e4fb"/><rect x="273.25" y="109.3" width="54.65" height="54.65" fill="#f9f4fd"/><rect x="327.9" y="109.3" width="54.65" height="54.65" fill="#f6eefc"/><path d="M 327.9 163.95 A 54.65 54.65 0 0 1  382.54999999999995 109.3 L 382.54999999999995 163.95" fill="#f1e6fb"/><rect x="382.55" y="109.3" width="54.65" height="54.65" fill="#f3e9fb"/><path d="M 382.55 163.95 A 54.65 54.65 0 0 1  437.2 109.3 L 437.2 163.95" fill="#ecddf9"/><rect x="437.2" y="109.3" width="54.65" height="54.65" fill="#f5ecfc"/><path d="M 437.2 109.3 A 54.65 54.65 0 0 0 491.84999999999997 163.95 L 491.84999999999997 109.3" fill="#f0e4fa"/><rect x="491.85" y="109.3" width="54.65" height="54.65" fill="#ffffff"/><g transform="translate(491.85,109.3) scale(2.7325) rotate(0)"><path fill-rule="evenodd" clip-rule="evenodd" d="M10 20C15.5228 20 20 15.5228 20 10C20 4.47715 15.5228 0 10 0C4.47715 0 0 4.47715 0 10C0 15.5228 4.47715 20 10 20ZM10 17C13.866 17 17 13.866 17 10C17 6.13401 13.866 3 10 3C6.13401 3 3 6.13401 3 10C3 13.866 6.13401 17 10 17Z" fill="#ffffff"/></g><rect x="546.5" y="109.3" width="54.65" height="54.65" fill="#f9f3fd"/><g transform="translate(546.5,109.3) scale(2.7325) rotate(0)"><path fill-rule="evenodd" clip-rule="evenodd" d="M10 20C15.5228 20 20 15.5228 20 10C20 4.47715 15.5228 0 10 0C4.47715 0 0 4.47715 0 10C0 15.5228 4.47715 20 10 20ZM10 17C13.866 17 17 13.866 17 10C17 6.13401 13.866 3 10 3C6.13401 3 3 6.13401 3 10C3 13.866 6.13401 17 10 17Z" fill="#f1e5fb"/></g><rect x="601.15" y="109.3" width="54.65" height="54.65" fill="#fcfafe"/><rect x="601.15" y="109.3" width="54.65" height="54.65" fill="#ffffff"/><rect x="655.8" y="109.3" width="54.65" height="54.65" fill="#ffffff"/><g transform="translate(655.8,109.3) scale(2.7325) rotate(0)"><rect width="20" height="10" fill="#ffffff"/></g><rect x="0" y="163.95" width="54.65" height="54.65" fill="#ffffff"/><path d="M 0 218.6 A 54.65 54.65 0 0 0 54.65 163.95 L 0 163.95" fill="#f0e4fa"/><rect x="54.65" y="163.95" width="54.65" height="54.65" fill="#ffffff"/><g transform="translate(54.65,163.95) scale(2.7325) rotate(0)"><rect width="20" height="10" fill="#eedffa"/></g><rect x="109.3" y="163.95" width="54.65" height="54.65" fill="#f9f4fd"/><path d="M 109.3 163.95 A 54.65 54.65 0 0 0 163.95 218.6 L 163.95 163.95" fill="#ffffff"/><rect x="163.95" y="163.95" width="54.65" height="54.65" fill="#f3e9fb"/><g transform="translate(163.95,163.95) scale(2.7325) rotate(0)"><path fill-rule="evenodd" clip-rule="evenodd" d="M10 20C15.5228 20 20 15.5228 20 10C20 4.47715 15.5228 0 10 0C4.47715 0 0 4.47715 0 10C0 15.5228 4.47715 20 10 20ZM10 17C13.866 17 17 13.866 17 10C17 6.13401 13.866 3 10 3C6.13401 3 3 6.13401 3 10C3 13.866 6.13401 17 10 17Z" fill="#ffffff"/></g><rect x="218.6" y="163.95" width="54.65" height="54.65" fill="#f5ecfc"/><g transform="translate(218.6,163.95) scale(2.7325) rotate(0)"><path fill-rule="evenodd" clip-rule="evenodd" d="M10 20C15.5228 20 20 15.5228 20 10C20 4.47715 15.5228 0 10 0C4.47715 0 0 4.47715 0 10C0 15.5228 4.47715 20 10 20ZM10 17C13.866 17 17 13.866 17 10C17 6.13401 13.866 3 10 3C6.13401 3 3 6.13401 3 10C3 13.866 6.13401 17 10 17Z" fill="#f0e3fa"/></g><rect x="273.25" y="163.95" width="54.65" height="54.65" fill="#ffffff"/><g transform="translate(273.25,163.95) scale(2.7325) rotate(0)"><rect width="20" height="10" fill="#e8d4f8"/></g><rect x="327.9" y="163.95" width="54.65" height="54.65" fill="#ffffff"/><g transform="translate(327.9,163.95) scale(2.7325) rotate(0)"><path fill-rule="evenodd" clip-rule="evenodd" d="M10 20C15.5228 20 20 15.5228 20 10C20 4.47715 15.5228 0 10 0C4.47715 0 0 4.47715 0 10C0 15.5228 4.47715 20 10 20ZM10 17C13.866 17 17 13.866 17 10C17 6.13401 13.866 3 10 3C6.13401 3 3 6.13401 3 10C3 13.866 6.13401 17 10 17Z" fill="#ffffff"/></g><rect x="382.55" y="163.95" width="54.65" height="54.65" fill="#e6d0f7"/><rect x="382.55" y="163.95" width="54.65" height="54.65" fill="#fbf7fe"/><rect x="437.2" y="163.95" width="54.65" height="54.65" fill="#ffffff"/><g transform="translate(437.2,163.95) scale(2.7325) rotate(0)"><path fill-rule="evenodd" clip-rule="evenodd" d="M10 20C15.5228 20 20 15.5228 20 10C20 4.47715 15.5228 0 10 0C4.47715 0 0 4.47715 0 10C0 15.5228 4.47715 20 10 20ZM10 17C13.866 17 17 13.866 17 10C17 6.13401 13.866 3 10 3C6.13401 3 3 6.13401 3 10C3 13.866 6.13401 17 10 17Z" fill="#fffeff"/></g><rect x="491.85" y="163.95" width="54.65" height="54.65" fill="#ffffff"/><g transform="translate(491.85,163.95) scale(2.7325) rotate(0)"><path fill-rule="evenodd" clip-rule="evenodd" d="M10 20C15.5228 20 20 15.5228 20 10C20 4.47715 15.5228 0 10 0C4.47715 0 0 4.47715 0 10C0 15.5228 4.47715 20 10 20ZM10 17C13.866 17 17 13.866 17 10C17 6.13401 13.866 3 10 3C6.13401 3 3 6.13401 3 10C3 13.866 6.13401 17 10 17Z" fill="#ffffff"/></g><rect x="546.5" y="163.95" width="54.65" height="54.65" fill="#ffffff"/><g transform="translate(546.5,163.95) scale(2.7325) rotate(0)"><path fill-rule="evenodd" clip-rule="evenodd" d="M10 20C15.5228 20 20 15.5228 20 10C20 4.47715 15.5228 0 10 0C4.47715 0 0 4.47715 0 10C0 15.5228 4.47715 20 10 20ZM10 17C13.866 17 17 13.866 17 10C17 6.13401 13.866 3 10 3C6.13401 3 3 6.13401 3 10C3 13.866 6.13401 17 10 17Z" fill="#eedffa"/></g><rect x="601.15" y="163.95" width="54.65" height="54.65" fill="#ffffff"/><rect x="601.15" y="163.95" width="54.65" height="54.65" fill="#f2e6fb"/><rect x="655.8" y="163.95" width="54.65" height="54.65" fill="#ffffff"/><rect x="655.8" y="163.95" width="54.65" height="54.65" fill="#ffffff"/><rect x="0" y="218.6" width="54.65" height="54.65" fill="#e5cff7"/><g transform="translate(0,218.6) scale(2.7325) rotate(0)"><path fill-rule="evenodd" clip-rule="evenodd" d="M10 20C15.5228 20 20 15.5228 20 10C20 4.47715 15.5228 0 10 0C4.47715 0 0 4.47715 0 10C0 15.5228 4.47715 20 10 20ZM10 17C13.866 17 17 13.866 17 10C17 6.13401 13.866 3 10 3C6.13401 3 3 6.13401 3 10C3 13.866 6.13401 17 10 17Z" fill="#fefdff"/></g><rect x="54.65" y="218.6" width="54.65" height="54.65" fill="#f4ebfc"/><rect x="54.65" y="218.6" width="54.65" height="54.65" fill="#ecdbf9"/><rect x="109.3" y="218.6" width="54.65" height="54.65" fill="#ffffff"/><path d="M 109.3 218.6 A 54.65 54.65 0 0 1  163.95 273.25 L 109.3 218.6 A 54.65 54.65 0 0 0 163.95 273.25" fill="#ffffff"/><rect x="163.95" y="218.6" width="54.65" height="54.65" fill="#ffffff"/><path d="M 163.95 218.6 A 54.65 54.65 0 0 1 218.6 273.25 L 163.95 273.25" fill="#ffffff"/><rect x="218.6" y="218.6" width="54.65" height="54.65" fill="#ffffff"/><path d="M 218.6 273.25 A 54.65 54.65 0 0 1  273.25 218.6 L 218.6 273.25 A 54.65 54.65 0 0 0 273.25 218.6" fill="#ffffff"/><rect x="273.25" y="218.6" width="54.65" height="54.65" fill="#efe1fa"/><g transform="translate(273.25,218.6) scale(2.7325) rotate(0)"><path fill-rule="evenodd" clip-rule="evenodd" d="M10 20C15.5228 20 20 15.5228 20 10C20 4.47715 15.5228 0 10 0C4.47715 0 0 4.47715 0 10C0 15.5228 4.47715 20 10 20ZM10 17C13.866 17 17 13.866 17 10C17 6.13401 13.866 3 10 3C6.13401 3 3 6.13401 3 10C3 13.866 6.13401 17 10 17Z" fill="#f2e7fb"/></g><rect x="327.9" y="218.6" width="54.65" height="54.65" fill="#ecdbf9"/><g transform="translate(327.9,218.6) scale(2.7325) rotate(0)"><path fill-rule="evenodd" clip-rule="evenodd" d="M10 20C15.5228 20 20 15.5228 20 10C20 4.47715 15.5228 0 10 0C4.47715 0 0 4.47715 0 10C0 15.5228 4.47715 20 10 20ZM10 17C13.866 17 17 13.866 17 10C17 6.13401 13.866 3 10 3C6.13401 3 3 6.13401 3 10C3 13.866 6.13401 17 10 17Z" fill="#ffffff"/></g><rect x="382.55" y="218.6" width="54.65" height="54.65" fill="#ffffff"/><path d="M 382.55 273.25 A 54.65 54.65 0 0 1  437.2 218.6 L 382.55 273.25 A 54.65 54.65 0 0 0 437.2 218.6" fill="#ffffff"/><rect x="437.2" y="218.6" width="54.65" height="54.65" fill="#ffffff"/><rect x="437.2" y="218.6" width="54.65" height="54.65" fill="#faf5fd"/><rect x="491.85" y="218.6" width="54.65" height="54.65" fill="#ffffff"/><g transform="translate(491.85,218.6) scale(2.7325) rotate(0)"><path fill-rule="evenodd" clip-rule="evenodd" d="M10 20C15.5228 20 20 15.5228 20 10C20 4.47715 15.5228 0 10 0C4.47715 0 0 4.47715 0 10C0 15.5228 4.47715 20 10 20ZM10 17C13.866 17 17 13.866 17 10C17 6.13401 13.866 3 10 3C6.13401 3 3 6.13401 3 10C3 13.866 6.13401 17 10 17Z" fill="#f1e6fb"/></g><rect x="546.5" y="218.6" width="54.65" height="54.65" fill="#fbf8fe"/><path d="M 546.5 273.25 A 54.65 54.65 0 0 0 601.15 218.6 L 546.5 218.6" fill="#ffffff"/><rect x="601.15" y="218.6" width="54.65" height="54.65" fill="#f5edfc"/><g transform="translate(601.15,218.6) scale(2.7325) rotate(0)"><path fill-rule="evenodd" clip-rule="evenodd" d="M10 20C15.5228 20 20 15.5228 20 10C20 4.47715 15.5228 0 10 0C4.47715 0 0 4.47715 0 10C0 15.5228 4.47715 20 10 20ZM10 17C13.866 17 17 13.866 17 10C17 6.13401 13.866 3 10 3C6.13401 3 3 6.13401 3 10C3 13.866 6.13401 17 10 17Z" fill="#ffffff"/></g><rect x="655.8" y="218.6" width="54.65" height="54.65" fill="#ead8f8"/><g transform="translate(655.8,218.6) scale(2.7325) rotate(0)"><rect width="20" height="10" fill="#ffffff"/></g><rect x="0" y="273.25" width="54.65" height="54.65" fill="#e5cff7"/><g transform="translate(0,273.25) scale(2.7325) rotate(0)"><path fill-rule="evenodd" clip-rule="evenodd" d="M10 20C15.5228 20 20 15.5228 20 10C20 4.47715 15.5228 0 10 0C4.47715 0 0 4.47715 0 10C0 15.5228 4.47715 20 10 20ZM10 17C13.866 17 17 13.866 17 10C17 6.13401 13.866 3 10 3C6.13401 3 3 6.13401 3 10C3 13.866 6.13401 17 10 17Z" fill="#ffffff"/></g><rect x="54.65" y="273.25" width="54.65" height="54.65" fill="#ffffff"/><g transform="translate(54.65,273.25) scale(2.7325) rotate(0)"><path fill-rule="evenodd" clip-rule="evenodd" d="M10 20C15.5228 20 20 15.5228 20 10C20 4.47715 15.5228 0 10 0C4.47715 0 0 4.47715 0 10C0 15.5228 4.47715 20 10 20ZM10 17C13.866 17 17 13.866 17 10C17 6.13401 13.866 3 10 3C6.13401 3 3 6.13401 3 10C3 13.866 6.13401 17 10 17Z" fill="#ffffff"/></g><rect x="109.3" y="273.25" width="54.65" height="54.65" fill="#fffeff"/><path d="M 109.3 327.9 A 54.65 54.65 0 0 1  163.95 273.25 L 109.3 327.9 A 54.65 54.65 0 0 0 163.95 273.25" fill="#ffffff"/><rect x="163.95" y="273.25" width="54.65" height="54.65" fill="#f7f0fd"/><g transform="translate(163.95,273.25) scale(2.7325) rotate(0)"><path fill-rule="evenodd" clip-rule="evenodd" d="M10 20C15.5228 20 20 15.5228 20 10C20 4.47715 15.5228 0 10 0C4.47715 0 0 4.47715 0 10C0 15.5228 4.47715 20 10 20ZM10 17C13.866 17 17 13.866 17 10C17 6.13401 13.866 3 10 3C6.13401 3 3 6.13401 3 10C3 13.866 6.13401 17 10 17Z" fill="#f6eefc"/></g><rect x="218.6" y="273.25" width="54.65" height="54.65" fill="#fcf9fe"/><rect x="218.6" y="273.25" width="54.65" height="54.65" fill="#ffffff"/><rect x="273.25" y="273.25" width="54.65" height="54.65" fill="#faf7fe"/><g transform="translate(273.25,273.25) scale(2.7325) rotate(0)"><path fill-rule="evenodd" clip-rule="evenodd" d="M10 20C15.5228 20 20 15.5228 20 10C20 4.47715 15.5228 0 10 0C4.47715 0 0 4.47715 0 10C0 15.5228 4.47715 20 10 20ZM10 17C13.866 17 17 13.866 17 10C17 6.13401 13.866 3 10 3C6.13401 3 3 6.13401 3 10C3 13.866 6.13401 17 10 17Z" fill="#ecdbf9"/></g><rect x="327.9" y="273.25" width="54.65" height="54.65" fill="#ffffff"/><g transform="translate(327.9,273.25) scale(2.7325) rotate(0)"><rect width="20" height="10" fill="#ffffff"/></g><rect x="382.55" y="273.25" width="54.65" height="54.65" fill="#f1e5fb"/><g transform="translate(382.55,273.25) scale(2.7325) rotate(0)"><rect width="20" height="10" fill="#ffffff"/></g><rect x="437.2" y="273.25" width="54.65" height="54.65" fill="#f6effc"/><g transform="translate(437.2,273.25) scale(2.7325) rotate(0)"><rect width="20" height="10" fill="#e9d6f8"/></g><rect x="491.85" y="273.25" width="54.65" height="54.65" fill="#ffffff"/><rect x="491.85" y="273.25" width="54.65" height="54.65" fill="#fffeff"/><rect x="546.5" y="273.25" width="54.65" height="54.65" fill="#e5d0f7"/><path d="M 546.5 327.9 A 54.65 54.65 0 0 1  601.15 273.25 L 546.5 327.9 A 54.65 54.65 0 0 0 601.15 273.25" fill="#eddefa"/><rect x="601.15" y="273.25" width="54.65" height="54.65" fill="#ffffff"/><g transform="translate(601.15,273.25) scale(2.7325) rotate(0)"><rect width="20" height="10" fill="#ffffff"/></g><rect x="655.8" y="273.25" width="54.65" height="54.65" fill="#ffffff"/><rect x="655.8" y="273.25" width="54.65" height="54.65" fill="#f7f1fd"/><rect x="0" y="327.9" width="54.65" height="54.65" fill="#fcf9fe"/><g transform="translate(0,327.9) scale(2.7325) rotate(0)"><rect width="20" height="10" fill="#ffffff"/></g><rect x="54.65" y="327.9" width="54.65" height="54.65" fill="#f9f3fd"/><path d="M 54.65 382.54999999999995 A 54.65 54.65 0 0 0 109.3 327.9 L 54.65 327.9" fill="#ffffff"/><rect x="109.3" y="327.9" width="54.65" height="54.65" fill="#ffffff"/><g transform="translate(109.3,327.9) scale(2.7325) rotate(0)"><path fill-rule="evenodd" clip-rule="evenodd" d="M10 20C15.5228 20 20 15.5228 20 10C20 4.47715 15.5228 0 10 0C4.47715 0 0 4.47715 0 10C0 15.5228 4.47715 20 10 20ZM10 17C13.866 17 17 13.866 17 10C17 6.13401 13.866 3 10 3C6.13401 3 3 6.13401 3 10C3 13.866 6.13401 17 10 17Z" fill="#fbf8fe"/></g><rect x="163.95" y="327.9" width="54.65" height="54.65" fill="#ffffff"/><path d="M 163.95 327.9 A 54.65 54.65 0 0 0 218.6 382.54999999999995 L 218.6 327.9" fill="#efe2fa"/><rect x="218.6" y="327.9" width="54.65" height="54.65" fill="#fefeff"/><g transform="translate(218.6,327.9) scale(2.7325) rotate(0)"><path fill-rule="evenodd" clip-rule="evenodd" d="M10 20C15.5228 20 20 15.5228 20 10C20 4.47715 15.5228 0 10 0C4.47715 0 0 4.47715 0 10C0 15.5228 4.47715 20 10 20ZM10 17C13.866 17 17 13.866 17 10C17 6.13401 13.866 3 10 3C6.13401 3 3 6.13401 3 10C3 13.866 6.13401 17 10 17Z" fill="#ffffff"/></g><rect x="273.25" y="327.9" width="54.65" height="54.65" fill="#ffffff"/><path d="M 273.25 327.9 A 54.65 54.65 0 0 0 327.9 382.54999999999995 L 327.9 327.9" fill="#e9d7f8"/><rect x="327.9" y="327.9" width="54.65" height="54.65" fill="#ffffff"/><g transform="translate(327.9,327.9) scale(2.7325) rotate(0)"><rect width="20" height="10" fill="#ffffff"/></g><rect x="382.55" y="327.9" width="54.65" height="54.65" fill="#ffffff"/><g transform="translate(382.55,327.9) scale(2.7325) rotate(0)"><rect width="20" height="10" fill="#ffffff"/></g><rect x="437.2" y="327.9" width="54.65" height="54.65" fill="#ffffff"/><g transform="translate(437.2,327.9) scale(2.7325) rotate(0)"><rect width="20" height="10" fill="#ffffff"/></g><rect x="491.85" y="327.9" width="54.65" height="54.65" fill="#ffffff"/><g transform="translate(491.85,327.9) scale(2.7325) rotate(0)"><path fill-rule="evenodd" clip-rule="evenodd" d="M10 20C15.5228 20 20 15.5228 20 10C20 4.47715 15.5228 0 10 0C4.47715 0 0 4.47715 0 10C0 15.5228 4.47715 20 10 20ZM10 17C13.866 17 17 13.866 17 10C17 6.13401 13.866 3 10 3C6.13401 3 3 6.13401 3 10C3 13.866 6.13401 17 10 17Z" fill="#ffffff"/></g><rect x="546.5" y="327.9" width="54.65" height="54.65" fill="#e7d2f8"/><g transform="translate(546.5,327.9) scale(2.7325) rotate(0)"><rect width="20" height="10" fill="#fdfbfe"/></g><rect x="601.15" y="327.9" width="54.65" height="54.65" fill="#efe2fa"/><g transform="translate(601.15,327.9) scale(2.7325) rotate(0)"><rect width="20" height="10" fill="#ffffff"/></g><rect x="655.8" y="327.9" width="54.65" height="54.65" fill="#f8f1fd"/><path d="M 655.8 382.54999999999995 A 54.65 54.65 0 0 0 710.4499999999999 327.9 L 655.8 327.9" fill="#f6eefc"/><rect x="0" y="382.55" width="54.65" height="54.65" fill="#ffffff"/><path d="M 0 382.55 A 54.65 54.65 0 0 1  54.65 437.2 L 0 382.55 A 54.65 54.65 0 0 0 54.65 437.2" fill="#f5ecfc"/><rect x="54.65" y="382.55" width="54.65" height="54.65" fill="#f8f2fd"/><g transform="translate(54.65,382.55) scale(2.7325) rotate(0)"><rect width="20" height="10" fill="#ffffff"/></g><rect x="109.3" y="382.55" width="54.65" height="54.65" fill="#f3eafb"/><rect x="109.3" y="382.55" width="54.65" height="54.65" fill="#ffffff"/><rect x="163.95" y="382.55" width="54.65" height="54.65" fill="#ffffff"/><path d="M 163.95 382.55 A 54.65 54.65 0 0 0 218.6 437.2 L 218.6 382.55" fill="#ffffff"/><rect x="218.6" y="382.55" width="54.65" height="54.65" fill="#ffffff"/><g transform="translate(218.6,382.55) scale(2.7325) rotate(0)"><path fill-rule="evenodd" clip-rule="evenodd" d="M10 20C15.5228 20 20 15.5228 20 10C20 4.47715 15.5228 0 10 0C4.47715 0 0 4.47715 0 10C0 15.5228 4.47715 20 10 20ZM10 17C13.866 17 17 13.866 17 10C17 6.13401 13.866 3 10 3C6.13401 3 3 6.13401 3 10C3 13.866 6.13401 17 10 17Z" fill="#ffffff"/></g><rect x="273.25" y="382.55" width="54.65" height="54.65" fill="#ffffff"/><g transform="translate(273.25,382.55) scale(2.7325) rotate(0)"><path fill-rule="evenodd" clip-rule="evenodd" d="M10 20C15.5228 20 20 15.5228 20 10C20 4.47715 15.5228 0 10 0C4.47715 0 0 4.47715 0 10C0 15.5228 4.47715 20 10 20ZM10 17C13.866 17 17 13.866 17 10C17 6.13401 13.866 3 10 3C6.13401 3 3 6.13401 3 10C3 13.866 6.13401 17 10 17Z" fill="#ffffff"/></g><rect x="327.9" y="382.55" width="54.65" height="54.65" fill="#fdfcfe"/><path d="M 327.9 437.2 A 54.65 54.65 0 0 1  382.54999999999995 382.55 L 382.54999999999995 437.2" fill="#ffffff"/><rect x="382.55" y="382.55" width="54.65" height="54.65" fill="#f0e3fa"/><g transform="translate(382.55,382.55) scale(2.7325) rotate(0)"><path fill-rule="evenodd" clip-rule="evenodd" d="M10 20C15.5228 20 20 15.5228 20 10C20 4.47715 15.5228 0 10 0C4.47715 0 0 4.47715 0 10C0 15.5228 4.47715 20 10 20ZM10 17C13.866 17 17 13.866 17 10C17 6.13401 13.866 3 10 3C6.13401 3 3 6.13401 3 10C3 13.866 6.13401 17 10 17Z" fill="#e7d3f8"/></g><rect x="437.2" y="382.55" width="54.65" height="54.65" fill="#ffffff"/><rect x="437.2" y="382.55" width="54.65" height="54.65" fill="#ffffff"/><rect x="491.85" y="382.55" width="54.65" height="54.65" fill="#ffffff"/><rect x="491.85" y="382.55" width="54.65" height="54.65" fill="#ffffff"/><rect x="546.5" y="382.55" width="54.65" height="54.65" fill="#e8d5f8"/><g transform="translate(546.5,382.55) scale(2.7325) rotate(0)"><path fill-rule="evenodd" clip-rule="evenodd" d="M10 20C15.5228 20 20 15.5228 20 10C20 4.47715 15.5228 0 10 0C4.47715 0 0 4.47715 0 10C0 15.5228 4.47715 20 10 20ZM10 17C13.866 17 17 13.866 17 10C17 6.13401 13.866 3 10 3C6.13401 3 3 6.13401 3 10C3 13.866 6.13401 17 10 17Z" fill="#ffffff"/></g><rect x="601.15" y="382.55" width="54.65" height="54.65" fill="#ffffff"/><rect x="601.15" y="382.55" width="54.65" height="54.65" fill="#e7d3f8"/><rect x="655.8" y="382.55" width="54.65" height="54.65" fill="#f7f0fd"/><rect x="655.8" y="382.55" width="54.65" height="54.65" fill="#fefdff"/></g></svg>